<svg xmlns="http://www.w3.org/2000/svg" width="36" height="36" viewBox="0 0 36 36">
  <path id="Icon_weather-stars" data-name="Icon weather-stars" d="M6.444,27.611A4.387,4.387,0,0,0,9.528,26.2,4.452,4.452,0,0,0,10.8,23.029,4.435,4.435,0,0,0,12.051,26.2a4.387,4.387,0,0,0,3.084,1.414,4.387,4.387,0,0,0-3.084,1.414A4.435,4.435,0,0,0,10.8,32.194a4.375,4.375,0,0,0-1.271-3.168A4.387,4.387,0,0,0,6.444,27.611ZM10.8,14.034a8.558,8.558,0,0,0,6-2.772,8.673,8.673,0,0,0,2.467-6.185,8.673,8.673,0,0,0,2.467,6.185,8.642,8.642,0,0,0,6.019,2.772,8.609,8.609,0,0,0-4.28,1.339,9.028,9.028,0,0,0-3.084,3.262,8.93,8.93,0,0,0-1.121,4.394,8.717,8.717,0,0,0-2.467-6.2A8.5,8.5,0,0,0,10.8,14.034ZM17,34.344a6.411,6.411,0,0,0,4.523-2.074,6.525,6.525,0,0,0,1.85-4.658,6.525,6.525,0,0,0,1.85,4.658,6.369,6.369,0,0,0,4.5,2.074,6.369,6.369,0,0,0-4.5,2.074,6.525,6.525,0,0,0-1.85,4.658A6.71,6.71,0,0,0,17,34.344ZM29.734,25.4a6.369,6.369,0,0,0,4.5-2.074,6.521,6.521,0,0,0,1.832-4.677,6.525,6.525,0,0,0,1.85,4.658,6.411,6.411,0,0,0,4.523,2.074,6.411,6.411,0,0,0-4.523,2.074,6.525,6.525,0,0,0-1.85,4.658,6.587,6.587,0,0,0-1.832-4.658A6.425,6.425,0,0,0,29.734,25.4Z" transform="translate(-6.444 -5.076)" fill="#fff"/>
</svg>
